<?xml version="1.0" encoding="UTF-8" standalone="no"?>
<!DOCTYPE svg PUBLIC "-//W3C//DTD SVG 1.1//EN" "http://www.w3.org/Graphics/SVG/1.1/DTD/svg11.dtd">
<svg width="100%" height="100%" viewBox="0 0 186 186" version="1.1" xmlns="http://www.w3.org/2000/svg" xmlns:xlink="http://www.w3.org/1999/xlink" xml:space="preserve" xmlns:serif="http://www.serif.com/" style="fill-rule:evenodd;clip-rule:evenodd;stroke-linejoin:round;stroke-miterlimit:2;">
    <g transform="matrix(1,0,0,1,-258.029,-333.113)">
        <g id="background">
            <rect x="-10" y="0" width="1040" height="1024" style="fill:rgb(49,49,49);"/>
        </g>
        <g id="One">
            <g id="Original">
            </g>
            <g id="Anim">
            </g>
        </g>
        <g id="Icon" transform="matrix(1,0,0,1,-1.77715e-09,282)">
            <g transform="matrix(1.18007,0,0,1.18007,-223.51,-367.082)">
                <rect x="408.059" y="354.382" width="157.618" height="157.618" style="fill:rgb(49,49,49);"/>
            </g>
            <g transform="matrix(128,0,0,128,295.988,125.858)">
                <path d="M0.458,-0.333L0.435,-0.142C0.429,-0.091 0.405,-0.053 0.364,-0.026C0.329,-0.003 0.286,0.008 0.236,0.008C0.215,0.008 0.194,0.006 0.174,0.001L0.139,0.248C0.135,0.271 0.125,0.289 0.106,0.301C0.088,0.314 0.069,0.318 0.048,0.315C0.011,0.309 -0.007,0.284 -0.007,0.24C-0.007,0.234 -0.007,0.228 -0.006,0.221L0.029,-0.039C0.008,-0.048 -0.009,-0.058 -0.023,-0.067C-0.038,-0.076 -0.041,-0.088 -0.034,-0.102C-0.029,-0.112 -0.018,-0.113 -0.003,-0.104C0.002,-0.101 0.016,-0.096 0.038,-0.088L0.083,-0.4C0.086,-0.425 0.096,-0.445 0.113,-0.46C0.128,-0.473 0.144,-0.48 0.163,-0.479C0.19,-0.478 0.209,-0.465 0.222,-0.44C0.253,-0.461 0.284,-0.473 0.316,-0.476C0.353,-0.479 0.386,-0.47 0.413,-0.449C0.444,-0.425 0.459,-0.393 0.459,-0.352C0.459,-0.346 0.459,-0.34 0.458,-0.333ZM0.34,-0.346C0.341,-0.352 0.342,-0.358 0.342,-0.363C0.342,-0.402 0.326,-0.424 0.293,-0.428C0.271,-0.43 0.25,-0.421 0.23,-0.402C0.23,-0.396 0.23,-0.39 0.229,-0.385L0.18,-0.042C0.193,-0.039 0.206,-0.037 0.219,-0.037C0.27,-0.037 0.299,-0.059 0.305,-0.103L0.34,-0.346Z" style="fill:white;fill-rule:nonzero;"/>
            </g>
            <g transform="matrix(128,0,0,128,341.977,183.231)">
                <path d="M0.456,-0.39L0.394,0.105C0.386,0.173 0.359,0.226 0.314,0.263C0.274,0.296 0.225,0.313 0.168,0.313C0.157,0.313 0.147,0.312 0.136,0.311C0.043,0.3 -0.008,0.254 -0.017,0.172C-0.018,0.161 -0.015,0.155 -0.007,0.152C0.004,0.147 0.01,0.152 0.013,0.165C0.017,0.187 0.026,0.207 0.039,0.226C0.06,0.255 0.087,0.271 0.122,0.272C0.183,0.274 0.219,0.238 0.229,0.163L0.254,-0.016C0.229,0 0.202,0.009 0.172,0.011C0.135,0.014 0.102,0.005 0.073,-0.016C0.04,-0.039 0.024,-0.071 0.024,-0.111C0.024,-0.118 0.025,-0.125 0.026,-0.132L0.055,-0.338C0.061,-0.38 0.08,-0.413 0.111,-0.438C0.138,-0.459 0.169,-0.47 0.203,-0.471C0.248,-0.472 0.282,-0.456 0.305,-0.423C0.31,-0.444 0.321,-0.46 0.337,-0.471C0.352,-0.482 0.369,-0.486 0.388,-0.485C0.409,-0.483 0.427,-0.474 0.441,-0.457C0.454,-0.44 0.459,-0.418 0.456,-0.39ZM0.295,-0.362C0.294,-0.371 0.292,-0.378 0.288,-0.385C0.28,-0.401 0.269,-0.41 0.254,-0.413C0.236,-0.416 0.22,-0.412 0.206,-0.401C0.191,-0.388 0.183,-0.37 0.179,-0.345L0.148,-0.119C0.147,-0.113 0.147,-0.107 0.147,-0.102C0.147,-0.063 0.163,-0.041 0.194,-0.037C0.216,-0.034 0.237,-0.043 0.257,-0.062C0.257,-0.063 0.27,-0.163 0.295,-0.362Z" style="fill:white;fill-rule:nonzero;"/>
            </g>
        </g>
    </g>
</svg>
