<?xml version="1.0" encoding="UTF-8" standalone="no"?>
<!DOCTYPE svg PUBLIC "-//W3C//DTD SVG 1.1//EN" "http://www.w3.org/Graphics/SVG/1.1/DTD/svg11.dtd">
<svg width="100%" height="100%" viewBox="0 0 412 183" version="1.1" xmlns="http://www.w3.org/2000/svg" xmlns:xlink="http://www.w3.org/1999/xlink" xml:space="preserve" xmlns:serif="http://www.serif.com/" style="fill-rule:evenodd;clip-rule:evenodd;stroke-linejoin:round;stroke-miterlimit:2;">
    <g transform="matrix(1,0,0,1,-294.23,-57.3883)">
        <g id="Original" transform="matrix(1,0,0,1,75.7696,-210)">
            <g transform="matrix(1,0,0,1,153.289,-113.418)">
                <g transform="matrix(128,0,0,128,70,442.962)">
                    <path d="M0.458,-0.333L0.435,-0.142C0.429,-0.091 0.405,-0.053 0.364,-0.026C0.329,-0.003 0.286,0.008 0.236,0.008C0.215,0.008 0.194,0.006 0.174,0.001L0.139,0.248C0.135,0.271 0.125,0.289 0.106,0.301C0.088,0.314 0.069,0.318 0.048,0.315C0.011,0.309 -0.007,0.284 -0.007,0.24C-0.007,0.234 -0.007,0.228 -0.006,0.221L0.029,-0.039C0.008,-0.048 -0.009,-0.058 -0.023,-0.067C-0.038,-0.076 -0.041,-0.088 -0.034,-0.102C-0.029,-0.112 -0.018,-0.113 -0.003,-0.104C0.002,-0.101 0.016,-0.096 0.038,-0.088L0.083,-0.4C0.086,-0.425 0.096,-0.445 0.113,-0.46C0.128,-0.473 0.144,-0.48 0.163,-0.479C0.19,-0.478 0.209,-0.465 0.222,-0.44C0.253,-0.461 0.284,-0.473 0.316,-0.476C0.353,-0.479 0.386,-0.47 0.413,-0.449C0.444,-0.425 0.459,-0.393 0.459,-0.352C0.459,-0.346 0.459,-0.34 0.458,-0.333ZM0.34,-0.346C0.341,-0.352 0.342,-0.358 0.342,-0.363C0.342,-0.402 0.326,-0.424 0.293,-0.428C0.271,-0.43 0.25,-0.421 0.23,-0.402C0.23,-0.396 0.23,-0.39 0.229,-0.385L0.18,-0.042C0.193,-0.039 0.206,-0.037 0.219,-0.037C0.27,-0.037 0.299,-0.059 0.305,-0.103L0.34,-0.346Z" style="fill:white;fill-rule:nonzero;"/>
                </g>
                <g transform="matrix(128,0,0,128,131.312,442.962)">
                    <path d="M0.416,-0.293L0.408,-0.247C0.405,-0.23 0.402,-0.218 0.397,-0.213C0.388,-0.204 0.371,-0.2 0.345,-0.2L0.161,-0.2C0.159,-0.183 0.158,-0.167 0.158,-0.152C0.158,-0.086 0.177,-0.047 0.216,-0.034C0.227,-0.031 0.237,-0.029 0.248,-0.029C0.277,-0.029 0.306,-0.04 0.333,-0.063C0.355,-0.081 0.369,-0.099 0.374,-0.116C0.379,-0.131 0.385,-0.138 0.392,-0.137C0.401,-0.137 0.402,-0.128 0.397,-0.111C0.386,-0.075 0.365,-0.045 0.333,-0.021C0.301,0.002 0.263,0.014 0.22,0.014C0.161,0.014 0.114,-0.004 0.08,-0.041C0.046,-0.077 0.029,-0.126 0.029,-0.187C0.029,-0.212 0.032,-0.238 0.037,-0.267C0.052,-0.34 0.082,-0.397 0.128,-0.436C0.17,-0.473 0.218,-0.489 0.271,-0.485C0.312,-0.482 0.346,-0.465 0.375,-0.433C0.404,-0.4 0.418,-0.362 0.418,-0.319C0.418,-0.31 0.417,-0.302 0.416,-0.293ZM0.291,-0.338C0.293,-0.35 0.294,-0.361 0.294,-0.372C0.294,-0.417 0.283,-0.439 0.261,-0.44C0.237,-0.441 0.215,-0.412 0.194,-0.352C0.183,-0.318 0.173,-0.28 0.166,-0.239L0.23,-0.239C0.247,-0.239 0.258,-0.241 0.264,-0.245C0.274,-0.251 0.281,-0.265 0.284,-0.286L0.291,-0.338Z" style="fill:white;fill-rule:nonzero;"/>
                </g>
                <g transform="matrix(128,0,0,128,188.016,442.962)">
                    <path d="M0.458,-0.345C0.455,-0.304 0.44,-0.27 0.415,-0.242C0.388,-0.212 0.355,-0.199 0.316,-0.204C0.275,-0.209 0.255,-0.234 0.255,-0.277C0.255,-0.289 0.257,-0.3 0.261,-0.311C0.266,-0.326 0.275,-0.34 0.286,-0.352C0.301,-0.366 0.316,-0.372 0.333,-0.37C0.347,-0.367 0.358,-0.36 0.366,-0.348C0.374,-0.337 0.378,-0.324 0.378,-0.311C0.378,-0.308 0.378,-0.305 0.377,-0.3C0.376,-0.295 0.375,-0.292 0.375,-0.289C0.375,-0.285 0.377,-0.282 0.381,-0.281C0.384,-0.28 0.388,-0.281 0.391,-0.284C0.405,-0.295 0.413,-0.315 0.415,-0.346C0.417,-0.372 0.412,-0.393 0.401,-0.41C0.388,-0.429 0.369,-0.44 0.344,-0.442C0.308,-0.445 0.275,-0.427 0.248,-0.388C0.226,-0.358 0.214,-0.328 0.21,-0.299L0.178,-0.063C0.174,-0.037 0.163,-0.017 0.145,-0.004C0.126,0.009 0.106,0.014 0.085,0.011C0.046,0.005 0.026,-0.021 0.026,-0.068C0.026,-0.074 0.026,-0.081 0.027,-0.088L0.069,-0.401C0.072,-0.429 0.083,-0.451 0.1,-0.466C0.115,-0.479 0.133,-0.485 0.153,-0.484C0.171,-0.482 0.187,-0.474 0.2,-0.461C0.213,-0.448 0.22,-0.43 0.221,-0.407C0.233,-0.427 0.249,-0.444 0.27,-0.457C0.294,-0.473 0.319,-0.481 0.346,-0.48C0.387,-0.479 0.418,-0.464 0.437,-0.435C0.454,-0.41 0.461,-0.38 0.458,-0.345Z" style="fill:white;fill-rule:nonzero;"/>
                </g>
            </g>
            <g transform="matrix(1,0,0,1,-16.256,-33.0261)">
                <g transform="matrix(128,0,0,128,277.744,442.962)">
                    <path d="M0.456,-0.39L0.394,0.105C0.386,0.173 0.359,0.226 0.314,0.263C0.274,0.296 0.225,0.313 0.168,0.313C0.157,0.313 0.147,0.312 0.136,0.311C0.043,0.3 -0.008,0.254 -0.017,0.172C-0.018,0.161 -0.015,0.155 -0.007,0.152C0.004,0.147 0.01,0.152 0.013,0.165C0.017,0.187 0.026,0.207 0.039,0.226C0.06,0.255 0.087,0.271 0.122,0.272C0.183,0.274 0.219,0.238 0.229,0.163L0.254,-0.016C0.229,0 0.202,0.009 0.172,0.011C0.135,0.014 0.102,0.005 0.073,-0.016C0.04,-0.039 0.024,-0.071 0.024,-0.111C0.024,-0.118 0.025,-0.125 0.026,-0.132L0.055,-0.338C0.061,-0.38 0.08,-0.413 0.111,-0.438C0.138,-0.459 0.169,-0.47 0.203,-0.471C0.248,-0.472 0.282,-0.456 0.305,-0.423C0.31,-0.444 0.321,-0.46 0.337,-0.471C0.352,-0.482 0.369,-0.486 0.388,-0.485C0.409,-0.483 0.427,-0.474 0.441,-0.457C0.454,-0.44 0.459,-0.418 0.456,-0.39ZM0.295,-0.362C0.294,-0.371 0.292,-0.378 0.288,-0.385C0.28,-0.401 0.269,-0.41 0.254,-0.413C0.236,-0.416 0.22,-0.412 0.206,-0.401C0.191,-0.388 0.183,-0.37 0.179,-0.345L0.148,-0.119C0.147,-0.113 0.147,-0.107 0.147,-0.102C0.147,-0.063 0.163,-0.041 0.194,-0.037C0.216,-0.034 0.237,-0.043 0.257,-0.062C0.257,-0.063 0.27,-0.163 0.295,-0.362Z" style="fill:white;fill-rule:nonzero;"/>
                </g>
                <g transform="matrix(128,0,0,128,338.928,442.962)">
                    <path d="M0.441,-0.214C0.428,-0.115 0.398,-0.049 0.353,-0.018C0.322,0.003 0.27,0.013 0.196,0.013C0.077,0.013 0.017,-0.05 0.017,-0.175C0.017,-0.197 0.019,-0.221 0.022,-0.246C0.035,-0.345 0.064,-0.412 0.109,-0.445C0.141,-0.468 0.193,-0.48 0.266,-0.48C0.324,-0.48 0.367,-0.468 0.395,-0.443C0.429,-0.414 0.446,-0.364 0.446,-0.294C0.446,-0.27 0.444,-0.243 0.441,-0.214ZM0.314,-0.346C0.317,-0.371 0.312,-0.391 0.301,-0.406C0.29,-0.421 0.275,-0.428 0.256,-0.428C0.237,-0.429 0.221,-0.422 0.206,-0.409C0.19,-0.394 0.18,-0.372 0.176,-0.345L0.148,-0.125C0.147,-0.12 0.147,-0.115 0.147,-0.11C0.147,-0.087 0.153,-0.07 0.166,-0.057C0.178,-0.044 0.193,-0.038 0.21,-0.038C0.228,-0.037 0.244,-0.044 0.259,-0.057C0.274,-0.07 0.282,-0.09 0.285,-0.115L0.314,-0.346Z" style="fill:white;fill-rule:nonzero;"/>
                </g>
                <g transform="matrix(128,0,0,128,398.96,442.962)">
                    <path d="M0.547,-0.127C0.545,-0.092 0.533,-0.061 0.512,-0.034C0.491,-0.006 0.465,0.008 0.436,0.008C0.381,0.007 0.345,-0.018 0.328,-0.069C0.316,-0.044 0.296,-0.024 0.267,-0.011C0.242,0.002 0.214,0.008 0.183,0.008C0.138,0.008 0.102,-0.005 0.073,-0.031C0.044,-0.057 0.03,-0.092 0.03,-0.135C0.03,-0.145 0.031,-0.154 0.032,-0.164L0.064,-0.401C0.067,-0.425 0.078,-0.444 0.095,-0.458C0.11,-0.471 0.129,-0.477 0.149,-0.476C0.17,-0.475 0.187,-0.468 0.201,-0.455C0.215,-0.44 0.22,-0.42 0.217,-0.395L0.188,-0.164C0.187,-0.152 0.186,-0.141 0.186,-0.132C0.186,-0.086 0.205,-0.063 0.243,-0.06C0.28,-0.057 0.303,-0.091 0.313,-0.164L0.346,-0.401C0.349,-0.425 0.359,-0.444 0.376,-0.458C0.391,-0.47 0.409,-0.476 0.43,-0.476C0.451,-0.476 0.468,-0.469 0.482,-0.455C0.496,-0.44 0.501,-0.42 0.498,-0.395L0.469,-0.154C0.467,-0.14 0.466,-0.128 0.466,-0.118C0.466,-0.093 0.472,-0.08 0.484,-0.079C0.501,-0.076 0.512,-0.092 0.517,-0.125C0.52,-0.14 0.526,-0.146 0.537,-0.143C0.544,-0.141 0.547,-0.136 0.547,-0.127Z" style="fill:white;fill-rule:nonzero;"/>
                </g>
                <g transform="matrix(128,0,0,128,471.024,442.962)">
                    <path d="M0.458,-0.345C0.455,-0.304 0.44,-0.27 0.415,-0.242C0.388,-0.212 0.355,-0.199 0.316,-0.204C0.275,-0.209 0.255,-0.234 0.255,-0.277C0.255,-0.289 0.257,-0.3 0.261,-0.311C0.266,-0.326 0.275,-0.34 0.286,-0.352C0.301,-0.366 0.316,-0.372 0.333,-0.37C0.347,-0.367 0.358,-0.36 0.366,-0.348C0.374,-0.337 0.378,-0.324 0.378,-0.311C0.378,-0.308 0.378,-0.305 0.377,-0.3C0.376,-0.295 0.375,-0.292 0.375,-0.289C0.375,-0.285 0.377,-0.282 0.381,-0.281C0.384,-0.28 0.388,-0.281 0.391,-0.284C0.405,-0.295 0.413,-0.315 0.415,-0.346C0.417,-0.372 0.412,-0.393 0.401,-0.41C0.388,-0.429 0.369,-0.44 0.344,-0.442C0.308,-0.445 0.275,-0.427 0.248,-0.388C0.226,-0.358 0.214,-0.328 0.21,-0.299L0.178,-0.063C0.174,-0.037 0.163,-0.017 0.145,-0.004C0.126,0.009 0.106,0.014 0.085,0.011C0.046,0.005 0.026,-0.021 0.026,-0.068C0.026,-0.074 0.026,-0.081 0.027,-0.088L0.069,-0.401C0.072,-0.429 0.083,-0.451 0.1,-0.466C0.115,-0.479 0.133,-0.485 0.153,-0.484C0.171,-0.482 0.187,-0.474 0.2,-0.461C0.213,-0.448 0.22,-0.43 0.221,-0.407C0.233,-0.427 0.249,-0.444 0.27,-0.457C0.294,-0.473 0.319,-0.481 0.346,-0.48C0.387,-0.479 0.418,-0.464 0.437,-0.435C0.454,-0.41 0.461,-0.38 0.458,-0.345Z" style="fill:white;fill-rule:nonzero;"/>
                </g>
                <g transform="matrix(128,0,0,128,528.752,442.962)">
                    <path d="M0.457,-0.396L0.412,-0.064C0.409,-0.037 0.398,-0.017 0.381,-0.004C0.364,0.01 0.344,0.016 0.323,0.014C0.297,0.011 0.278,-0.002 0.267,-0.025C0.236,-0.003 0.205,0.009 0.172,0.011C0.135,0.014 0.102,0.006 0.073,-0.015C0.041,-0.038 0.025,-0.07 0.025,-0.11C0.025,-0.117 0.025,-0.125 0.026,-0.132L0.057,-0.344C0.063,-0.387 0.082,-0.421 0.113,-0.445C0.14,-0.466 0.17,-0.476 0.205,-0.477C0.25,-0.478 0.283,-0.462 0.306,-0.429C0.312,-0.451 0.323,-0.467 0.34,-0.477C0.356,-0.487 0.374,-0.491 0.393,-0.488C0.413,-0.485 0.429,-0.475 0.442,-0.46C0.455,-0.443 0.46,-0.421 0.457,-0.396ZM0.298,-0.368C0.296,-0.377 0.293,-0.385 0.29,-0.392C0.283,-0.408 0.271,-0.417 0.256,-0.419C0.238,-0.422 0.222,-0.418 0.208,-0.406C0.193,-0.395 0.185,-0.376 0.181,-0.351L0.148,-0.119C0.147,-0.113 0.147,-0.107 0.147,-0.101C0.147,-0.062 0.163,-0.041 0.195,-0.037C0.218,-0.034 0.238,-0.043 0.258,-0.062C0.258,-0.068 0.258,-0.074 0.26,-0.08L0.298,-0.368Z" style="fill:white;fill-rule:nonzero;"/>
                </g>
                <g transform="matrix(128,0,0,128,590.192,442.962)">
                    <path d="M0.437,-0.393L0.433,-0.36C0.43,-0.339 0.421,-0.322 0.405,-0.31C0.389,-0.298 0.372,-0.294 0.353,-0.297C0.316,-0.302 0.299,-0.33 0.305,-0.381L0.307,-0.411C0.309,-0.418 0.31,-0.425 0.312,-0.431C0.298,-0.444 0.282,-0.45 0.263,-0.45C0.249,-0.45 0.237,-0.446 0.227,-0.437C0.216,-0.428 0.211,-0.416 0.211,-0.402C0.211,-0.383 0.234,-0.35 0.28,-0.303L0.329,-0.253C0.385,-0.196 0.413,-0.15 0.413,-0.117C0.413,-0.108 0.412,-0.098 0.409,-0.087C0.4,-0.052 0.378,-0.025 0.345,-0.005C0.316,0.012 0.283,0.021 0.247,0.021C0.228,0.021 0.21,0.018 0.193,0.013C0.168,0.004 0.148,-0.008 0.131,-0.025C0.112,0 0.087,0.011 0.056,0.006C0.017,0 -0.002,-0.027 -0.002,-0.075C-0.002,-0.08 -0.002,-0.086 -0.001,-0.092L0.003,-0.128C0.006,-0.156 0.016,-0.178 0.033,-0.193C0.049,-0.206 0.067,-0.212 0.087,-0.21C0.106,-0.209 0.122,-0.201 0.135,-0.186C0.148,-0.171 0.155,-0.15 0.155,-0.125C0.155,-0.119 0.155,-0.113 0.154,-0.107L0.148,-0.066C0.165,-0.045 0.183,-0.03 0.2,-0.023C0.209,-0.02 0.219,-0.018 0.228,-0.018C0.258,-0.018 0.273,-0.032 0.273,-0.059C0.273,-0.078 0.257,-0.104 0.225,-0.136L0.161,-0.199C0.117,-0.242 0.095,-0.288 0.095,-0.335C0.095,-0.358 0.1,-0.38 0.111,-0.403C0.124,-0.43 0.145,-0.452 0.174,-0.467C0.2,-0.481 0.228,-0.488 0.257,-0.488C0.268,-0.488 0.278,-0.487 0.287,-0.485C0.309,-0.48 0.324,-0.473 0.333,-0.466C0.346,-0.478 0.362,-0.483 0.38,-0.482C0.396,-0.481 0.41,-0.473 0.421,-0.461C0.432,-0.448 0.438,-0.43 0.438,-0.409C0.438,-0.404 0.438,-0.398 0.437,-0.393Z" style="fill:white;fill-rule:nonzero;"/>
                </g>
            </g>
        </g>
    </g>
</svg>
